<svg width="114" height="127" viewBox="0 0 114 127" fill="none" xmlns="http://www.w3.org/2000/svg">
<g clip-path="url(#clip0_8_146)">
<path fill-rule="evenodd" clip-rule="evenodd" d="M83.233 28.1806C84.7428 28.6036 85.7873 29.9767 85.7939 31.5435C85.8332 31.6435 85.8337 31.703 85.8337 31.703C85.8337 31.703 85.817 45.1236 69.9263 57.4779C64.0186 62.07 58.8273 69.2891 56.8591 76.3271C56.4739 77.6874 55.3152 78.686 53.9142 78.8702C52.5128 79.0525 51.1364 78.3852 50.4141 77.1708C46.3535 70.1086 42.91 58.5773 50.6467 45.1612C58.1875 32.087 71.9572 25.2498 83.233 28.1806ZM80.6643 32.6297C70.8392 31.4112 61.2032 37.38 55.1947 47.787C50.4223 56.053 51.343 65.4396 53.6831 71.6479C55.6153 65.896 59.3811 59.0241 66.7036 53.3311C76.0338 46.0774 79.6617 36.6322 80.6643 32.6297Z" fill="white"/>
<path fill-rule="evenodd" clip-rule="evenodd" d="M62.4781 87.748C60.9227 87.32 59.8417 85.9076 59.835 84.2938C59.7949 84.2372 59.7939 84.2048 59.7939 84.2048C59.7939 84.2048 59.8106 70.7842 75.7013 58.4299C81.6646 53.794 86.8973 46.4821 88.8228 39.3816C89.1876 38.0565 90.3052 37.0766 91.6676 36.8884C93.0282 36.7006 94.3703 37.3406 95.0797 38.5172C99.1999 45.5547 102.8 57.1884 94.9809 70.7465C87.4585 83.789 73.7383 90.6244 62.4781 87.748ZM64.9633 83.2781C74.7885 84.4966 84.4245 78.5277 90.4329 68.1207C95.2053 59.8547 94.2846 50.4682 91.9445 44.2599C90.0123 50.0118 86.2465 56.8836 78.924 62.5767C69.5938 69.8303 65.9659 79.2755 64.9633 83.2781Z" fill="white"/>
<path fill-rule="evenodd" clip-rule="evenodd" d="M42.6229 87.4909C44.1725 87.4714 45.521 86.4257 45.9289 84.9313C45.9966 84.828 46.0143 84.762 46.0143 84.762C46.0143 84.762 49.4718 71.7928 37.3201 55.749C32.8171 49.8032 29.6785 41.5221 29.5787 34.2315C29.552 32.8047 28.681 31.5311 27.3594 30.9896C26.0394 30.4481 24.5235 30.7438 23.5029 31.7413C17.7726 37.525 11.524 47.7512 15.5104 62.6549C19.4131 77.2487 30.961 87.4215 42.6229 87.4909ZM50.708 79.6944C52.0884 80.4853 53.2232 80.8166 54.8566 80.5387C54.1672 82.1864 53.1465 83.4047 52.1703 84.2704C51.725 84.6213 51.1106 84.6694 50.6172 84.3915C50.122 84.1154 49.8423 83.5668 49.91 83.004C49.9545 82.1062 50.17 81.0392 50.708 79.6944ZM41.2602 82.5284C31.4544 81.1621 23.6935 72.9042 20.5834 61.2958C18.1128 52.0761 21.4313 43.2482 25.2984 37.8563C25.676 43.9126 27.5339 51.5257 33.1342 58.9197C40.2699 68.3407 41.3296 78.403 41.2602 82.5284ZM44.6552 58.4797C44.1743 57.7333 43.6703 57.0119 43.1484 56.3226C30.9949 40.2771 34.454 27.3096 34.454 27.3096C34.454 27.3096 34.4736 27.2365 34.5057 27.1172C34.9136 25.6227 36.2514 24.5682 37.8011 24.5237C44.7105 24.6056 51.5844 28.1806 56.8533 34.1228C55.5761 35.3661 54.4166 36.581 53.3692 37.7833C49.609 33.2696 44.7319 30.3109 39.2065 29.5414C39.1441 33.3658 40.0507 42.2952 45.8701 51.0839C45.2217 53.412 44.8334 55.8505 44.6552 58.4797Z" fill="white"/>
</g>
<path d="M9.208 108.256C9.88 108.256 10.456 108.352 10.936 108.544C11.416 108.736 11.768 108.904 11.992 109.048C12.536 109.448 12.864 109.192 12.976 108.28H13.504C13.472 108.744 13.448 109.296 13.432 109.936C13.416 110.56 13.408 111.4 13.408 112.456H12.88C12.8 111.864 12.648 111.288 12.424 110.728C12.2 110.168 11.872 109.704 11.44 109.336C11.008 108.952 10.44 108.76 9.736 108.76C9.24 108.76 8.824 108.904 8.488 109.192C8.168 109.48 8.008 109.888 8.008 110.416C8.008 110.896 8.152 111.32 8.44 111.688C8.728 112.04 9.096 112.376 9.544 112.696C10.008 113 10.488 113.336 10.984 113.704C11.56 114.088 12.072 114.48 12.52 114.88C12.968 115.264 13.328 115.696 13.6 116.176C13.872 116.64 14.008 117.192 14.008 117.832C14.008 118.568 13.8 119.2 13.384 119.728C12.984 120.24 12.448 120.64 11.776 120.928C11.12 121.2 10.392 121.336 9.592 121.336C9.16 121.336 8.768 121.296 8.416 121.216C8.064 121.136 7.752 121.032 7.48 120.904C7.272 120.792 7.08 120.688 6.904 120.592C6.744 120.496 6.576 120.416 6.4 120.352C6.24 120.272 6.096 120.304 5.968 120.448C5.856 120.592 5.768 120.832 5.704 121.168H5.176C5.208 120.656 5.232 120.032 5.248 119.296C5.264 118.56 5.272 117.584 5.272 116.368H5.8C5.912 117.248 6.08 118.024 6.304 118.696C6.544 119.352 6.888 119.872 7.336 120.256C7.784 120.624 8.36 120.808 9.064 120.808C9.368 120.808 9.656 120.744 9.928 120.616C10.216 120.488 10.448 120.288 10.624 120.016C10.816 119.744 10.912 119.376 10.912 118.912C10.912 118.208 10.672 117.624 10.192 117.16C9.712 116.696 9.112 116.2 8.392 115.672C7.848 115.272 7.336 114.88 6.856 114.496C6.392 114.112 6.008 113.68 5.704 113.2C5.416 112.72 5.272 112.152 5.272 111.496C5.272 110.776 5.456 110.184 5.824 109.72C6.192 109.24 6.672 108.88 7.264 108.64C7.872 108.384 8.52 108.256 9.208 108.256ZM20.1048 102.208V118.768C20.1048 119.44 20.2248 119.896 20.4648 120.136C20.7208 120.376 21.1448 120.496 21.7368 120.496V121C21.4488 120.984 21.0088 120.968 20.4168 120.952C19.8408 120.92 19.2488 120.904 18.6408 120.904C18.0488 120.904 17.4408 120.92 16.8168 120.952C16.2088 120.968 15.7528 120.984 15.4488 121V120.496C16.0408 120.496 16.4568 120.376 16.6968 120.136C16.9528 119.896 17.0808 119.44 17.0808 118.768V105.088C17.0808 104.368 16.9688 103.84 16.7448 103.504C16.5208 103.152 16.0888 102.976 15.4488 102.976V102.472C15.9608 102.52 16.4568 102.544 16.9368 102.544C17.5448 102.544 18.1128 102.52 18.6408 102.472C19.1688 102.408 19.6568 102.32 20.1048 102.208ZM28.72 108.256C29.824 108.256 30.8 108.48 31.648 108.928C32.512 109.36 33.192 110.056 33.688 111.016C34.2 111.976 34.456 113.24 34.456 114.808C34.456 116.376 34.2 117.64 33.688 118.6C33.192 119.56 32.512 120.256 31.648 120.688C30.8 121.12 29.824 121.336 28.72 121.336C27.616 121.336 26.632 121.12 25.768 120.688C24.904 120.256 24.224 119.56 23.728 118.6C23.232 117.64 22.984 116.376 22.984 114.808C22.984 113.24 23.232 111.976 23.728 111.016C24.224 110.056 24.904 109.36 25.768 108.928C26.632 108.48 27.616 108.256 28.72 108.256ZM28.72 108.736C27.968 108.736 27.352 109.216 26.872 110.176C26.408 111.12 26.176 112.664 26.176 114.808C26.176 116.952 26.408 118.496 26.872 119.44C27.352 120.384 27.968 120.856 28.72 120.856C29.456 120.856 30.064 120.384 30.544 119.44C31.024 118.496 31.264 116.952 31.264 114.808C31.264 112.664 31.024 111.12 30.544 110.176C30.064 109.216 29.456 108.736 28.72 108.736ZM41.1484 108.592V109.096C40.7644 109.096 40.4364 109.128 40.1644 109.192C39.8924 109.24 39.7084 109.368 39.6124 109.576C39.5324 109.784 39.5724 110.152 39.7324 110.68L42.0844 117.832L41.8204 118.024L44.8684 108.544L45.3724 108.784L41.4604 121.072C41.2684 121.056 41.0684 121.048 40.8604 121.048C40.6684 121.048 40.4764 121.056 40.2844 121.072L36.4444 110.44C36.1884 109.8 35.9324 109.416 35.6764 109.288C35.4364 109.16 35.2284 109.096 35.0524 109.096V108.592C35.5004 108.64 35.9644 108.68 36.4444 108.712C36.9244 108.728 37.4524 108.736 38.0284 108.736C38.5244 108.736 39.0444 108.72 39.5884 108.688C40.1484 108.656 40.6684 108.624 41.1484 108.592ZM53.8924 108.592V109.096C53.5884 109.16 53.2924 109.328 53.0044 109.6C52.7324 109.856 52.4844 110.336 52.2604 111.04L48.9724 121.072C48.7804 121.056 48.5884 121.048 48.3964 121.048C48.2044 121.048 48.0044 121.056 47.7964 121.072L44.2684 111.64L44.8924 108.544C45.1164 108.56 45.3404 108.568 45.5644 108.568C45.7884 108.568 46.0124 108.56 46.2364 108.544L49.6684 118.312L49.4284 118.192L51.3004 112.384C51.5404 111.616 51.6284 111 51.5644 110.536C51.5164 110.072 51.3324 109.728 51.0124 109.504C50.7084 109.264 50.2844 109.128 49.7404 109.096V108.592C49.9964 108.608 50.2604 108.624 50.5324 108.64C50.8044 108.656 51.0684 108.672 51.3244 108.688C51.5804 108.688 51.8204 108.688 52.0444 108.688C52.3804 108.688 52.7164 108.68 53.0524 108.664C53.3884 108.648 53.6684 108.624 53.8924 108.592ZM62.4904 108.256C62.9864 108.256 63.3944 108.36 63.7144 108.568C64.0504 108.776 64.2984 109.04 64.4584 109.36C64.6184 109.68 64.6984 110.016 64.6984 110.368C64.6984 110.896 64.5384 111.336 64.2184 111.688C63.9144 112.04 63.5064 112.216 62.9944 112.216C62.5144 112.216 62.1224 112.088 61.8184 111.832C61.5144 111.576 61.3624 111.224 61.3624 110.776C61.3624 110.376 61.4584 110.04 61.6504 109.768C61.8584 109.496 62.0904 109.28 62.3464 109.12C62.1704 109.024 61.9704 108.992 61.7464 109.024C61.3624 109.056 61.0104 109.192 60.6904 109.432C60.3704 109.672 60.0984 109.968 59.8744 110.32C59.6504 110.672 59.4744 111.048 59.3464 111.448C59.2344 111.848 59.1784 112.232 59.1784 112.6V118.528C59.1784 119.312 59.3784 119.84 59.7784 120.112C60.1784 120.368 60.7624 120.496 61.5304 120.496V121C61.1624 120.984 60.6264 120.968 59.9224 120.952C59.2344 120.92 58.5144 120.904 57.7624 120.904C57.1384 120.904 56.5144 120.92 55.8904 120.952C55.2824 120.968 54.8264 120.984 54.5224 121V120.496C55.1144 120.496 55.5304 120.376 55.7704 120.136C56.0264 119.896 56.1544 119.44 56.1544 118.768V111.208C56.1544 110.488 56.0344 109.96 55.7944 109.624C55.5704 109.272 55.1464 109.096 54.5224 109.096V108.592C55.0344 108.64 55.5304 108.664 56.0104 108.664C56.6024 108.664 57.1624 108.64 57.6904 108.592C58.2344 108.528 58.7304 108.44 59.1784 108.328V110.824C59.3704 110.376 59.6184 109.96 59.9224 109.576C60.2424 109.192 60.6184 108.88 61.0504 108.64C61.4984 108.384 61.9784 108.256 62.4904 108.256ZM71.2591 108.256C72.3631 108.256 73.3391 108.48 74.1871 108.928C75.0511 109.36 75.7311 110.056 76.2271 111.016C76.7391 111.976 76.9951 113.24 76.9951 114.808C76.9951 116.376 76.7391 117.64 76.2271 118.6C75.7311 119.56 75.0511 120.256 74.1871 120.688C73.3391 121.12 72.3631 121.336 71.2591 121.336C70.1551 121.336 69.1711 121.12 68.3071 120.688C67.4431 120.256 66.7631 119.56 66.2671 118.6C65.7711 117.64 65.5231 116.376 65.5231 114.808C65.5231 113.24 65.7711 111.976 66.2671 111.016C66.7631 110.056 67.4431 109.36 68.3071 108.928C69.1711 108.48 70.1551 108.256 71.2591 108.256ZM71.2591 108.736C70.5071 108.736 69.8911 109.216 69.4111 110.176C68.9471 111.12 68.7151 112.664 68.7151 114.808C68.7151 116.952 68.9471 118.496 69.4111 119.44C69.8911 120.384 70.5071 120.856 71.2591 120.856C71.9951 120.856 72.6031 120.384 73.0831 119.44C73.5631 118.496 73.8031 116.952 73.8031 114.808C73.8031 112.664 73.5631 111.12 73.0831 110.176C72.6031 109.216 71.9951 108.736 71.2591 108.736ZM81.9053 121.168C81.2173 121.168 80.6333 121.04 80.1533 120.784C79.6733 120.512 79.3133 120.152 79.0733 119.704C78.8333 119.24 78.7133 118.728 78.7133 118.168C78.7133 117.48 78.8733 116.92 79.1933 116.488C79.5133 116.04 79.9213 115.688 80.4173 115.432C80.9293 115.16 81.4653 114.936 82.0253 114.76C82.5853 114.568 83.1133 114.392 83.6093 114.232C84.1053 114.056 84.5133 113.856 84.8333 113.632C85.1533 113.408 85.3133 113.112 85.3133 112.744V110.992C85.3133 110.48 85.2333 110.064 85.0733 109.744C84.9293 109.408 84.7053 109.16 84.4013 109C84.1133 108.824 83.7453 108.736 83.2973 108.736C82.9613 108.736 82.6093 108.784 82.2413 108.88C81.8733 108.976 81.5693 109.16 81.3293 109.432C81.7453 109.544 82.0653 109.752 82.2893 110.056C82.5293 110.36 82.6493 110.728 82.6493 111.16C82.6493 111.656 82.4813 112.048 82.1453 112.336C81.8253 112.608 81.4173 112.744 80.9213 112.744C80.3933 112.744 79.9933 112.576 79.7213 112.24C79.4493 111.904 79.3133 111.512 79.3133 111.064C79.3133 110.616 79.4253 110.248 79.6493 109.96C79.8733 109.656 80.1853 109.384 80.5853 109.144C80.9853 108.872 81.4973 108.656 82.1213 108.496C82.7453 108.336 83.4253 108.256 84.1613 108.256C84.8653 108.256 85.4893 108.336 86.0333 108.496C86.5773 108.64 87.0413 108.904 87.4253 109.288C87.8093 109.656 88.0573 110.112 88.1693 110.656C88.2813 111.2 88.3373 111.864 88.3373 112.648V119.224C88.3373 119.624 88.3853 119.912 88.4813 120.088C88.5773 120.248 88.7293 120.328 88.9373 120.328C89.0973 120.328 89.2493 120.288 89.3933 120.208C89.5373 120.128 89.6973 120.016 89.8733 119.872L90.1373 120.28C89.7853 120.552 89.4173 120.768 89.0333 120.928C88.6493 121.088 88.1853 121.168 87.6413 121.168C87.0813 121.168 86.6333 121.088 86.2973 120.928C85.9773 120.768 85.7373 120.536 85.5773 120.232C85.4333 119.928 85.3533 119.568 85.3373 119.152C84.9533 119.792 84.4813 120.288 83.9213 120.64C83.3613 120.992 82.6893 121.168 81.9053 121.168ZM83.3453 119.824C83.7293 119.824 84.0813 119.72 84.4013 119.512C84.7373 119.304 85.0413 118.992 85.3133 118.576V113.728C85.1533 113.968 84.9213 114.184 84.6173 114.376C84.3293 114.568 84.0173 114.76 83.6813 114.952C83.3453 115.144 83.0253 115.368 82.7213 115.624C82.4333 115.864 82.1853 116.168 81.9773 116.536C81.7853 116.888 81.6893 117.344 81.6893 117.904C81.6893 118.528 81.8413 119.008 82.1453 119.344C82.4493 119.664 82.8493 119.824 83.3453 119.824ZM95.4111 108.256C96.0831 108.256 96.6591 108.352 97.1391 108.544C97.6191 108.736 97.9711 108.904 98.1951 109.048C98.7391 109.448 99.0671 109.192 99.1791 108.28H99.7071C99.6751 108.744 99.6511 109.296 99.6351 109.936C99.6191 110.56 99.6111 111.4 99.6111 112.456H99.0831C99.0031 111.864 98.8511 111.288 98.6271 110.728C98.4031 110.168 98.0751 109.704 97.6431 109.336C97.2111 108.952 96.6431 108.76 95.9391 108.76C95.4431 108.76 95.0271 108.904 94.6911 109.192C94.3711 109.48 94.2111 109.888 94.2111 110.416C94.2111 110.896 94.3551 111.32 94.6431 111.688C94.9311 112.04 95.2991 112.376 95.7471 112.696C96.2111 113 96.6911 113.336 97.1871 113.704C97.7631 114.088 98.2751 114.48 98.7231 114.88C99.1711 115.264 99.5311 115.696 99.8031 116.176C100.075 116.64 100.211 117.192 100.211 117.832C100.211 118.568 100.003 119.2 99.5871 119.728C99.1871 120.24 98.6511 120.64 97.9791 120.928C97.3231 121.2 96.5951 121.336 95.7951 121.336C95.3631 121.336 94.9711 121.296 94.6191 121.216C94.2671 121.136 93.9551 121.032 93.6831 120.904C93.4751 120.792 93.2831 120.688 93.1071 120.592C92.9471 120.496 92.7791 120.416 92.6031 120.352C92.4431 120.272 92.2991 120.304 92.1711 120.448C92.0591 120.592 91.9711 120.832 91.9071 121.168H91.3791C91.4111 120.656 91.4351 120.032 91.4511 119.296C91.4671 118.56 91.4751 117.584 91.4751 116.368H92.0031C92.1151 117.248 92.2831 118.024 92.5071 118.696C92.7471 119.352 93.0911 119.872 93.5391 120.256C93.9871 120.624 94.5631 120.808 95.2671 120.808C95.5711 120.808 95.8591 120.744 96.1311 120.616C96.4191 120.488 96.6511 120.288 96.8271 120.016C97.0191 119.744 97.1151 119.376 97.1151 118.912C97.1151 118.208 96.8751 117.624 96.3951 117.16C95.9151 116.696 95.3151 116.2 94.5951 115.672C94.0511 115.272 93.5391 114.88 93.0591 114.496C92.5951 114.112 92.2111 113.68 91.9071 113.2C91.6191 112.72 91.4751 112.152 91.4751 111.496C91.4751 110.776 91.6591 110.184 92.0271 109.72C92.3951 109.24 92.8751 108.88 93.4671 108.64C94.0751 108.384 94.7231 108.256 95.4111 108.256ZM106.332 104.656V108.616H109.404V109.096H106.332V118.648C106.332 119.224 106.436 119.632 106.644 119.872C106.852 120.112 107.148 120.232 107.532 120.232C107.9 120.232 108.236 120.096 108.54 119.824C108.844 119.536 109.116 119.064 109.356 118.408L109.788 118.6C109.548 119.384 109.172 120.04 108.66 120.568C108.164 121.08 107.46 121.336 106.548 121.336C106.004 121.336 105.54 121.264 105.156 121.12C104.788 120.992 104.468 120.8 104.196 120.544C103.844 120.176 103.604 119.736 103.476 119.224C103.364 118.712 103.308 118.032 103.308 117.184V109.096H101.196V108.616H103.308V105.28C103.884 105.264 104.42 105.208 104.916 105.112C105.412 105.016 105.884 104.864 106.332 104.656Z" fill="white"/>
<defs>
<clipPath id="clip0_8_146">
<rect width="114" height="114" fill="white"/>
</clipPath>
</defs>
</svg>
